<svg width="98" height="60" viewBox="0 0 98 60" fill="none" xmlns="http://www.w3.org/2000/svg">
<g id="Logo_mobile">
<path id="Vector" d="M54.1996 31.9417H52.7006V46.949H54.1996V40.9928C54.1996 38.2483 56.1395 36.9636 57.7855 36.9636C59.6372 36.9636 60.7247 38.0147 60.7247 40.5256V46.9198H62.2237V40.3213C62.2237 37.0512 60.2838 35.6205 58.1088 35.6205C56.4922 35.6205 54.8462 36.4381 54.229 38.2775L54.1996 31.9417ZM41.8548 41.46C41.8548 38.7738 43.7947 36.9636 46.0285 36.9636C48.2623 36.9636 50.2022 38.7446 50.2022 41.46C50.2022 44.1753 48.2623 45.9563 46.0285 45.9563C43.7653 45.9563 41.8548 44.1461 41.8548 41.46ZM40.3264 41.46C40.3264 44.876 42.9423 47.2994 46.0285 47.2994C49.1147 47.2994 51.7306 44.876 51.7306 41.46C51.7306 38.0439 49.1147 35.6497 46.0285 35.6497C42.9423 35.6497 40.3264 38.0439 40.3264 41.46ZM48.2623 34.949C48.8208 34.949 49.2617 34.511 49.2617 33.9563C49.2617 33.4016 48.8208 32.9636 48.2623 32.9636C47.7039 32.9636 47.263 33.4016 47.263 33.9563C47.263 34.511 47.7039 34.949 48.2623 34.949ZM43.7947 34.949C44.3531 34.949 44.794 34.511 44.794 33.9563C44.794 33.4016 44.3531 32.9636 43.7947 32.9636C43.2362 32.9636 42.7953 33.4016 42.7953 33.9563C42.7953 34.511 43.2362 34.949 43.7947 34.949ZM30.4505 42.949L28.9221 43.5037C29.51 45.4892 31.4205 47.2994 34.5655 47.2994C37.3577 47.2994 39.7091 45.5767 39.7091 43.1242C39.7091 41.1388 38.3571 39.9709 36.5054 39.4162L33.331 38.4235C31.8908 37.9563 31.1559 37.1388 31.1559 35.8833C31.1559 34.2775 32.5962 33.1096 34.4773 33.1096C36.5054 33.1096 37.4753 34.3067 37.8574 35.6497L39.3564 35.1242C38.8568 33.2556 37.2108 31.7373 34.4773 31.7373C31.9789 31.7373 29.5688 33.3432 29.5688 35.9417C29.5688 37.9855 30.9796 39.2994 32.9195 39.8833L36.0645 40.8468C37.5929 41.3432 38.1513 42.1315 38.1513 43.241C38.1513 44.73 36.6229 45.8979 34.6243 45.8979C32.2141 45.8687 30.9502 44.4965 30.4505 42.949ZM14.9607 40.2045C15.1959 39.9417 15.6074 39.5329 15.8719 39.2702C16.0189 39.1242 16.1658 38.949 16.3422 38.803C16.5479 39.0074 16.7243 39.1826 16.7243 39.1826C18.0469 40.5256 19.6929 42.1315 21.2507 43.7081C20.9568 44.0001 20.6923 44.2629 20.4277 44.5548C20.1338 44.8468 19.8693 45.1388 19.5166 45.3432C18.6054 45.9563 17.3709 46.0731 16.3422 45.6643C14.1084 44.8176 13.4029 42.0147 14.9607 40.2045ZM17.606 38.1899C17.1652 37.7519 16.7537 37.3432 16.3716 36.9636L16.0482 36.6424C15.0489 35.5913 15.4016 33.7519 16.7537 33.1972C18.0175 32.6424 19.4284 33.4891 19.6341 34.803C19.7517 35.4746 19.5753 36.2045 19.1051 36.7008C18.6348 37.168 18.1057 37.6935 17.606 38.1899ZM13.9908 39.3286C12.5506 40.876 12.3448 43.2702 13.4617 45.0512C14.5786 46.8614 16.8418 47.7081 18.8699 47.095C19.6047 46.8906 20.3101 46.4818 20.8686 45.9563L21.3683 45.4892C21.6622 45.2264 21.9267 44.9344 22.2207 44.6716C23.0143 45.4892 23.8078 46.2483 24.5133 46.949L25.5126 45.9563C25.5126 45.9563 23.896 44.3797 23.22 43.6789C23.8666 43.0366 24.5427 42.3943 25.1893 41.7519L24.2193 40.7884C23.7785 41.2556 23.2788 41.7519 22.8085 42.2191C22.6321 42.3943 22.4558 42.5694 22.25 42.7738C21.1331 41.6643 19.7811 40.3213 18.5172 39.095C18.7817 38.8322 19.0463 38.5402 19.3402 38.2775C19.7811 37.8395 20.3983 37.314 20.6923 36.7884C21.3095 35.7957 21.2801 34.511 20.6923 33.5183C19.7517 31.7957 17.4297 31.2118 15.7543 32.2337C14.4317 32.9928 13.7262 34.7154 14.2259 36.1753C14.4317 36.876 14.9313 37.4308 15.4604 37.9271C15.1371 38.2191 14.8138 38.5402 14.5198 38.8322C14.3141 38.9782 14.1084 39.1826 13.9908 39.3286ZM22.1325 17.0804C22.1325 19.0074 20.9274 20.2337 18.723 20.2337H14.4905V14.0439H18.7817C20.9274 14.0439 22.1325 15.2118 22.1325 17.0804ZM23.6609 17.0804C23.6609 14.3359 21.6916 12.6716 18.8699 12.6716H12.962V27.5621H14.4905V21.6059H18.8405C21.6034 21.6059 23.6609 19.9125 23.6609 17.0804ZM31.1266 23.2702C31.1266 25.8395 29.2454 26.657 27.7758 26.657C26.3356 26.657 25.1305 25.7519 25.1305 24.4964C25.1305 23.5329 25.7477 22.9782 26.8353 22.7446L30.3917 21.9855L31.0972 21.8103L31.1266 23.2702ZM31.2147 27.5329H32.5962C32.5668 26.949 32.5374 26.4818 32.5374 25.8687V20.6716C32.5374 17.6935 30.862 16.2045 28.3637 16.2045C25.9241 16.2045 24.3075 17.8103 23.8666 19.3578L25.2775 19.7957C25.5714 18.7446 26.5119 17.46 28.3637 17.46C30.1566 17.46 31.009 18.657 31.009 20.1461C31.009 20.5548 30.8032 20.73 30.4211 20.8176L26.5119 21.6059C24.6014 21.9855 23.6609 23.0074 23.6609 24.5256C23.6609 26.5986 25.5714 27.8541 27.5113 27.8541C28.9809 27.8541 30.5093 27.2118 31.1559 25.7227V25.9855C31.1853 26.5402 31.1853 27.0658 31.2147 27.5329ZM43.5595 27.6789C43.971 27.6789 44.4119 27.6205 44.794 27.4746V26.1899C44.4707 26.2775 44.118 26.3359 43.7653 26.3359C42.9129 26.3359 42.3251 25.9855 42.3251 24.876V17.8687H44.794V16.584H42.3251V13.8687L40.8848 14.3067V16.584H38.0338C36.8875 16.584 35.8293 17.1388 35.4472 18.657V16.584H34.007V27.5329H35.506V20.9928C35.506 19.2994 36.329 17.8395 37.975 17.8395H40.8554V25.0512C40.8848 26.6278 41.796 27.6789 43.5595 27.6789ZM54.0233 27.5329H55.5223V20.9052C55.5223 17.6351 53.5824 16.2045 51.4073 16.2045C49.8495 16.2045 48.2329 16.9636 47.4981 18.7154V16.584H45.9991V27.5329H47.4981V21.5767C47.4981 18.8322 49.438 17.5475 51.084 17.5475C52.9357 17.5475 54.0233 18.5986 54.0233 21.1096V27.5329ZM65.4275 21.0804H58.1088C58.3733 18.9782 59.8723 17.4891 61.9004 17.4891C63.8109 17.4891 65.3981 18.803 65.4275 21.0804ZM66.8677 22.3067C66.8971 21.9855 66.8971 21.8103 66.8971 21.4891C66.8971 18.0731 64.5751 16.2045 61.9004 16.2045C58.9318 16.2045 56.551 18.5986 56.551 22.0147C56.551 25.5767 58.873 27.8833 62.018 27.8833C64.4282 27.8833 66.1329 26.4235 66.7502 24.73L65.3687 24.1753C64.869 25.5183 63.7815 26.5402 62.018 26.5402C59.8429 26.5402 58.1382 24.8176 58.0794 22.3067H66.8677ZM71.8938 17.8979C72.2465 17.8979 72.5699 17.9271 72.8932 18.0147V16.584C72.5699 16.4673 72.2465 16.4381 71.9232 16.4381C70.7769 16.4381 69.7188 17.1388 69.3367 18.657V16.584H67.8965V27.5329H69.3955V20.9928C69.4249 19.3286 70.2479 17.8979 71.8938 17.8979ZM71.7763 46.949H73.2753V40.3505C73.2753 37.0804 71.3354 35.6497 69.1603 35.6497C67.6025 35.6497 65.986 36.4089 65.2511 38.1607V36.0293H63.7521V46.9782H65.2511V41.022C65.2511 38.2775 67.191 36.9928 68.837 36.9928C70.6887 36.9928 71.7763 38.0439 71.7763 40.5548V46.949ZM83.1805 40.4964H75.8618C76.1263 38.3943 77.6254 36.9052 79.6534 36.9052C81.5639 36.9052 83.1217 38.2191 83.1805 40.4964ZM84.6501 40.9344C84.6501 37.5183 82.3281 35.6497 79.6534 35.6497C76.6848 35.6497 74.304 38.0439 74.304 41.46C74.304 45.022 76.626 47.3286 79.771 47.3286C82.1518 47.3286 83.8859 45.8687 84.5032 44.1753L83.1217 43.6205C82.6221 44.9636 81.5345 45.9855 79.771 45.9855C77.596 45.9855 75.8618 44.2629 75.8324 41.7519H84.6208C84.6208 41.4308 84.6501 41.2264 84.6501 40.9344Z" fill="black"/>
</g>
</svg>
